<mxfile host="app.diagrams.net" agent="Mozilla/5.0 (Macintosh; Intel Mac OS X 10_15_7) AppleWebKit/537.36 (KHTML, like Gecko) Chrome/129.0.0.0 Safari/537.36" version="24.7.16">
  <diagram name="master-worker-relationship" id="Jr2KvwU5gIfZi9rQVjwy">
    <mxGraphModel dx="1434" dy="795" grid="1" gridSize="10" guides="1" tooltips="1" connect="1" arrows="1" fold="1" page="1" pageScale="1" pageWidth="850" pageHeight="1100" math="0" shadow="0">
      <root>
        <mxCell id="0" />
        <mxCell id="1" parent="0" />
        <mxCell id="eDh6nSgTxHVv-VUf7lYG-1" value="Request" style="ellipse;shape=cloud;whiteSpace=wrap;html=1;" vertex="1" parent="1">
          <mxGeometry x="365" y="140" width="120" height="80" as="geometry" />
        </mxCell>
        <mxCell id="eDh6nSgTxHVv-VUf7lYG-2" value="Cluster master&lt;div&gt;:3001&lt;/div&gt;" style="rounded=0;whiteSpace=wrap;html=1;" vertex="1" parent="1">
          <mxGeometry x="365" y="280" width="120" height="60" as="geometry" />
        </mxCell>
        <mxCell id="eDh6nSgTxHVv-VUf7lYG-3" value="" style="endArrow=classic;html=1;rounded=0;exitX=0.55;exitY=0.95;exitDx=0;exitDy=0;exitPerimeter=0;entryX=0.5;entryY=0;entryDx=0;entryDy=0;dashed=1;" edge="1" parent="1" source="eDh6nSgTxHVv-VUf7lYG-1" target="eDh6nSgTxHVv-VUf7lYG-2">
          <mxGeometry width="50" height="50" relative="1" as="geometry">
            <mxPoint x="400" y="430" as="sourcePoint" />
            <mxPoint x="430" y="270" as="targetPoint" />
          </mxGeometry>
        </mxCell>
        <mxCell id="eDh6nSgTxHVv-VUf7lYG-4" value="PID 1" style="text;html=1;align=center;verticalAlign=middle;whiteSpace=wrap;rounded=0;" vertex="1" parent="1">
          <mxGeometry x="440" y="250" width="60" height="30" as="geometry" />
        </mxCell>
        <mxCell id="eDh6nSgTxHVv-VUf7lYG-5" value="Cluster worker #1&lt;div&gt;IPC&lt;/div&gt;" style="rounded=0;whiteSpace=wrap;html=1;" vertex="1" parent="1">
          <mxGeometry x="250" y="410" width="120" height="60" as="geometry" />
        </mxCell>
        <mxCell id="eDh6nSgTxHVv-VUf7lYG-6" value="Cluster worker #2&lt;div&gt;IPC&lt;/div&gt;" style="rounded=0;whiteSpace=wrap;html=1;" vertex="1" parent="1">
          <mxGeometry x="470" y="410" width="120" height="60" as="geometry" />
        </mxCell>
        <mxCell id="eDh6nSgTxHVv-VUf7lYG-7" value="" style="endArrow=classic;html=1;rounded=0;exitX=0;exitY=1;exitDx=0;exitDy=0;entryX=0.5;entryY=0;entryDx=0;entryDy=0;" edge="1" parent="1" source="eDh6nSgTxHVv-VUf7lYG-2" target="eDh6nSgTxHVv-VUf7lYG-5">
          <mxGeometry width="50" height="50" relative="1" as="geometry">
            <mxPoint x="400" y="500" as="sourcePoint" />
            <mxPoint x="450" y="450" as="targetPoint" />
          </mxGeometry>
        </mxCell>
        <mxCell id="eDh6nSgTxHVv-VUf7lYG-8" value="" style="endArrow=classic;html=1;rounded=0;exitX=1;exitY=1;exitDx=0;exitDy=0;entryX=0.5;entryY=0;entryDx=0;entryDy=0;" edge="1" parent="1" source="eDh6nSgTxHVv-VUf7lYG-2" target="eDh6nSgTxHVv-VUf7lYG-6">
          <mxGeometry width="50" height="50" relative="1" as="geometry">
            <mxPoint x="400" y="500" as="sourcePoint" />
            <mxPoint x="450" y="450" as="targetPoint" />
          </mxGeometry>
        </mxCell>
        <mxCell id="eDh6nSgTxHVv-VUf7lYG-9" value="PID 2" style="text;html=1;align=center;verticalAlign=middle;whiteSpace=wrap;rounded=0;" vertex="1" parent="1">
          <mxGeometry x="340" y="380" width="60" height="30" as="geometry" />
        </mxCell>
        <mxCell id="eDh6nSgTxHVv-VUf7lYG-10" value="PID 3" style="text;html=1;align=center;verticalAlign=middle;whiteSpace=wrap;rounded=0;" vertex="1" parent="1">
          <mxGeometry x="540" y="380" width="60" height="30" as="geometry" />
        </mxCell>
      </root>
    </mxGraphModel>
  </diagram>
</mxfile>
